<svg width="32" height="33" viewBox="0 0 32 33" fill="none" xmlns="http://www.w3.org/2000/svg">
<path d="M27.7073 15.793C28.0983 16.184 28.0983 16.816 27.7073 17.207L16.7073 28.207C16.3163 28.598 15.6842 28.598 15.2932 28.207C14.9022 27.816 14.9022 27.184 15.2932 26.793L25.5863 16.5L15.2932 6.20701C14.9022 5.81601 14.9022 5.18401 15.2932 4.79301C15.6842 4.40201 16.3163 4.40201 16.7073 4.79301L27.7073 15.793Z" fill="#00AEFF"/>
<path d="M16.7073 17.207L5.70725 28.207C5.31625 28.598 4.68425 28.598 4.29325 28.207C3.90225 27.816 3.90225 27.184 4.29325 26.793L14.5863 16.5L4.29325 6.20701C3.90225 5.81601 3.90225 5.18401 4.29325 4.79301C4.68425 4.40201 5.31625 4.40201 5.70725 4.79301L16.7073 15.793C17.0983 16.184 17.0983 16.816 16.7073 17.207Z" fill="#00AEFF"/>
</svg>
