<svg width="31" height="26" viewBox="0 0 31 26" fill="none" xmlns="http://www.w3.org/2000/svg">
<g clip-path="url(#clip0_37_389)">
<path d="M5.58174 25.2995C4.03837 25.2995 2.49486 25.2995 0.95122 25.2995C0.806608 25.2995 0.701888 25.2861 0.733055 25.0964C0.893458 24.1383 1.0788 23.1865 1.48687 22.2931C2.04703 21.0684 2.89352 20.0813 3.90705 19.2219C4.64466 18.5976 5.45624 18.0733 6.20505 17.4638C6.58404 17.1552 6.93767 16.8222 7.16667 16.3799C7.69941 15.3486 7.15915 14.2778 6.02264 14.0983C5.08349 13.952 4.17883 14.1206 3.2858 14.4048C2.87262 14.5427 2.46785 14.7054 2.07363 14.8917C1.93567 14.9547 1.89121 14.9177 1.85006 14.7912C1.65337 14.1866 1.45363 13.583 1.25083 12.9804C1.20595 12.8467 1.24502 12.7765 1.37176 12.7202C2.91721 12.0332 4.51875 11.614 6.22004 11.6872C7.20116 11.7293 8.14447 11.926 8.95729 12.5251C9.85155 13.1848 10.2347 14.1075 10.2663 15.2052C10.2991 16.3513 9.84446 17.2931 9.09981 18.1205C8.49101 18.7965 7.77005 19.3371 7.05693 19.8908C6.3343 20.4525 5.59462 20.9949 5.01368 21.7188C4.76895 22.0137 4.57254 22.3464 4.4319 22.7043C4.3812 22.8384 4.40406 22.893 4.55989 22.893C6.42852 22.8891 8.29708 22.8883 10.1657 22.8905C10.4516 22.8905 10.4525 22.8905 10.4529 23.1743C10.4529 23.7974 10.4475 24.4208 10.457 25.0439C10.4599 25.2314 10.4101 25.2962 10.2143 25.2936C8.67054 25.2852 7.12676 25.289 5.58298 25.289L5.58174 25.2995Z" fill="#00AEFF"/>
<path d="M18.7253 15.7463C18.7253 17.0209 18.7282 18.2961 18.7212 19.5721C18.7212 19.7536 18.7665 19.8146 18.9514 19.8113C19.4775 19.8025 20.0036 19.8184 20.5305 19.8113C20.6726 19.8092 20.7112 19.8558 20.7104 19.9904C20.7057 20.6207 20.7057 21.2514 20.7104 21.8822C20.7104 22.0319 20.6581 22.0757 20.5155 22.0735C19.9965 22.0668 19.4766 22.076 18.958 22.0664C18.7814 22.063 18.7191 22.1109 18.7212 22.3022C18.7315 23.2196 18.7212 24.1373 18.7291 25.0547C18.7291 25.2355 18.6842 25.2985 18.4967 25.296C17.7488 25.2859 17.0008 25.2839 16.2528 25.296C16.0596 25.299 16.0242 25.2309 16.0254 25.0564C16.0325 24.1458 16.0225 23.2352 16.0333 22.3237C16.0359 22.1202 15.9777 22.0631 15.7782 22.0639C13.9647 22.071 12.1509 22.0685 10.3369 22.0689C10.0577 22.0689 10.0577 22.0689 10.0573 21.7767C10.0573 21.3425 10.0573 20.9082 10.0548 20.4734C10.0522 20.3479 10.0956 20.2259 10.1765 20.1308C11.4825 18.4598 12.7854 16.7859 14.0852 15.1093C14.9272 14.0272 15.7696 12.9458 16.6127 11.8654C16.6485 11.815 16.6966 11.7746 16.7522 11.7484C16.8079 11.7221 16.8693 11.7107 16.9306 11.7153C17.4562 11.7237 17.9827 11.725 18.5096 11.7153C18.685 11.7119 18.7307 11.7691 18.7294 11.9432C18.7224 13.2107 18.7253 14.4787 18.7253 15.7463ZM16.1322 15.9922L16.0654 15.9544C16.0508 15.9867 16.0338 16.0179 16.0147 16.0477C15.1063 17.2621 14.1979 18.4767 13.2894 19.6915C13.2583 19.7335 13.1964 19.7756 13.2346 19.8352C13.2728 19.895 13.3368 19.8609 13.3892 19.8579C14.1979 19.8129 15.0074 19.8092 15.8164 19.8205C15.9993 19.8231 16.0338 19.7587 16.0317 19.5914C16.0205 18.5483 16.0251 17.5053 16.0969 16.4639C16.1077 16.3066 16.1206 16.1494 16.1322 15.9922Z" fill="#00AEFF"/>
<path d="M1.29104 4.76069V1.39986C1.29104 1.12239 1.29104 1.12239 1.56738 1.12239C2.27383 1.12239 2.98027 1.11314 3.68671 1.12449C4.24937 1.13332 4.77172 1.26659 5.22758 1.63782C6.06991 2.32436 6.02586 3.66886 5.22135 4.31672C5.04183 4.46135 5.04474 4.45588 5.25293 4.54964C6.30181 5.02219 6.59931 6.14722 6.14012 7.12553C5.71336 8.02776 4.92631 8.38972 3.98341 8.42255C3.20217 8.44983 2.41927 8.42923 1.6372 8.43091C1.29062 8.43091 1.29062 8.43091 1.29104 8.07988V4.76069ZM2.78122 6.25401C2.78122 6.50624 2.78122 6.75852 2.78122 7.01075C2.78122 7.10369 2.79368 7.19363 2.90131 7.19363C3.36881 7.19363 3.84296 7.25374 4.29383 7.07004C4.64622 6.92624 4.81743 6.63363 4.80829 6.20271C4.79915 5.8378 4.60467 5.56495 4.25893 5.44218C3.82343 5.28705 3.3713 5.34128 2.92375 5.3375C2.81155 5.3375 2.77498 5.40813 2.77748 5.51912C2.78496 5.7638 2.78122 6.0089 2.78122 6.25401ZM2.78122 3.23037C2.78122 3.46075 2.78122 3.69282 2.78122 3.92153C2.78122 4.02453 2.80117 4.10441 2.92541 4.10231C3.15272 4.09853 3.38252 4.1124 3.60776 4.08633C4.01583 4.04009 4.32583 3.7273 4.35035 3.3628C4.3811 2.90286 4.15919 2.53457 3.78354 2.43241C3.51592 2.36309 3.23956 2.33475 2.96364 2.34833C2.83898 2.35295 2.77457 2.39709 2.77955 2.53668C2.78704 2.76916 2.78163 2.99956 2.78122 3.23037Z" fill="#00AEFF"/>
<path d="M20.8178 14.9673C20.8093 14.3614 20.9212 13.7598 21.1467 13.1984C21.3722 12.6369 21.7068 12.127 22.1306 11.6987C22.5545 11.2704 23.059 10.9326 23.6142 10.7052C24.1695 10.4777 24.7642 10.3654 25.3632 10.3747C27.8781 10.4037 29.8728 12.4423 29.8266 15.0414C29.7851 17.4537 27.8465 19.5222 25.2289 19.5033C22.8229 19.486 20.8091 17.4239 20.8178 14.9673ZM28.9668 14.9707C29.0545 12.9649 27.2606 11.2193 25.2925 11.229C23.3643 11.2403 21.6394 12.9359 21.6423 14.9446C21.6452 16.932 23.3199 18.6128 25.2372 18.6523C27.3084 18.6969 29.0267 16.8916 28.9668 14.9707Z" fill="#00AEFF"/>
<path d="M20.8147 3.20353C20.9323 3.20353 21.0532 3.22203 21.1671 3.20017C21.4675 3.14299 21.6437 3.31327 21.8012 3.52726C22.0564 3.87368 22.3124 4.2201 22.5633 4.57032C22.6548 4.69644 22.7146 4.74857 22.8314 4.57957C23.1185 4.16209 23.4273 3.76059 23.7236 3.34858C23.8067 3.23339 23.8981 3.17158 24.0502 3.17621C24.4375 3.18756 24.8252 3.17957 25.2138 3.18083C25.2603 3.18083 25.3172 3.16276 25.3476 3.21195C25.387 3.27585 25.3276 3.3141 25.2965 3.35657C24.7936 4.03933 24.2942 4.72377 23.7859 5.4019C23.495 5.78784 23.5021 5.77439 23.7776 6.1612C24.253 6.82756 24.7184 7.5006 25.2129 8.1531C25.2545 8.20903 25.3347 8.27207 25.296 8.35452C25.2574 8.43691 25.1602 8.40245 25.0882 8.40283C24.735 8.40577 24.3818 8.40283 24.029 8.40283C23.985 8.40609 23.941 8.39712 23.9016 8.37685C23.8623 8.35664 23.8292 8.32593 23.8059 8.28805C23.4734 7.8256 23.1323 7.36903 22.8002 6.90658C22.7208 6.79598 22.6756 6.78256 22.5899 6.9024C22.2671 7.36104 21.9084 7.79365 21.6105 8.27001C21.5345 8.39191 21.4397 8.43272 21.3005 8.4306C20.9065 8.42555 20.5109 8.4306 20.1178 8.43691C20.0763 8.43691 20.0384 8.45289 20.0106 8.40452C19.9666 8.32799 20.0268 8.28805 20.0626 8.24055C20.5252 7.61751 20.9893 6.99386 21.4547 6.36968C21.5664 6.21919 21.6733 6.06446 21.7892 5.91691C21.8615 5.82442 21.8565 5.74874 21.7892 5.65373C21.2585 4.90665 20.7374 4.152 20.183 3.42215C20.1449 3.37128 20.0675 3.31747 20.1054 3.24305C20.1432 3.16864 20.23 3.20816 20.2957 3.20648C20.4686 3.20311 20.6419 3.20648 20.8147 3.20648V3.20353Z" fill="#00AEFF"/>
<path d="M10.2456 5.90947C10.2456 5.4819 10.2456 5.05476 10.2456 4.6272C10.2456 4.35981 10.2369 4.35224 9.98216 4.35182C9.80887 4.35182 9.63557 4.34594 9.4627 4.35182C9.31519 4.35813 9.25787 4.28791 9.2728 4.14918C9.30084 3.88484 9.3017 3.61826 9.27527 3.35375C9.26324 3.22762 9.32265 3.17549 9.44653 3.17843C9.63353 3.18264 9.82052 3.17213 10.0075 3.1818C10.1945 3.19146 10.2539 3.1099 10.2481 2.92955C10.2398 2.66342 10.2481 2.39688 10.2436 2.13075C10.2402 1.99874 10.2826 1.92685 10.4156 1.89027C10.795 1.78559 11.1723 1.67081 11.5488 1.55604C11.6959 1.51147 11.7483 1.55604 11.7453 1.71286C11.7383 2.14 11.7474 2.56757 11.7412 2.99471C11.7412 3.12967 11.7807 3.18012 11.9182 3.17801C12.3059 3.17128 12.6941 3.1839 13.0817 3.17423C13.2546 3.16961 13.3132 3.22342 13.2621 3.39285C13.179 3.66738 13.0959 3.94192 13.0207 4.21813C12.9895 4.32996 12.9172 4.34888 12.8166 4.34762C12.5328 4.34425 12.2482 4.36023 11.9652 4.34383C11.7711 4.33248 11.7379 4.41236 11.74 4.58642C11.7487 5.27296 11.7345 5.95993 11.7466 6.64645C11.7591 7.37629 12.0279 7.34477 12.5428 7.28547C12.6464 7.27221 12.7457 7.23591 12.8337 7.17912C12.9725 7.08917 13.0307 7.14846 13.083 7.2733C13.1794 7.5058 13.2821 7.73575 13.3797 7.96656C13.4254 8.07547 13.4242 8.16836 13.2966 8.22515C12.564 8.54803 11.8139 8.68379 11.0439 8.38363C10.5452 8.18857 10.2893 7.77863 10.2568 7.24852C10.2298 6.802 10.2515 6.35216 10.2515 5.90316L10.2456 5.90947Z" fill="#00AEFF"/>
<path d="M15.4324 6.56584C15.4324 7.09051 15.4324 7.6153 15.4324 8.1403C15.4324 8.42573 15.4291 8.4266 15.1415 8.43079C14.7825 8.43628 14.4227 8.4085 14.064 8.4472C14.0505 8.45041 14.0366 8.45079 14.023 8.44823C14.0094 8.44568 13.9965 8.44024 13.9851 8.43231C13.9737 8.42437 13.9641 8.41416 13.9569 8.4022C13.9496 8.3903 13.9449 8.37698 13.9431 8.36312C13.9288 8.29513 13.9216 8.22579 13.9219 8.15628C13.9219 6.59595 13.9219 5.03549 13.9219 3.47491C13.9219 3.18061 13.9219 3.18061 14.207 3.18061C14.4629 3.18061 14.7193 3.19112 14.9745 3.17641C15.1428 3.16716 15.2238 3.22349 15.2687 3.38914C15.3593 3.71328 15.3655 3.7074 15.6115 3.50307C16.1413 3.0629 16.7256 2.90776 17.3834 3.18061C17.5301 3.24115 17.5862 3.30674 17.5006 3.47995C17.3652 3.75322 17.2642 4.04457 17.1516 4.32919C17.0967 4.46793 17.046 4.54697 16.8657 4.46205C16.3695 4.22787 15.9277 4.37796 15.5226 4.70589C15.4354 4.77652 15.4304 4.86901 15.4307 4.96949C15.4307 5.50132 15.4307 6.03312 15.4307 6.56709L15.4324 6.56584Z" fill="#00AEFF"/>
<path d="M7.22154 5.80389C7.22154 5.01224 7.22697 4.22059 7.21784 3.42894C7.21574 3.23849 7.26645 3.16786 7.46381 3.17669C7.81621 3.19225 8.17027 3.18552 8.52305 3.17922C8.67765 3.17628 8.72793 3.20823 8.72669 3.38943C8.71837 4.66287 8.73706 5.93676 8.7296 7.21019C8.7275 7.55285 8.7325 7.89464 8.73669 8.23687C8.73669 8.38649 8.68555 8.47394 8.53261 8.45084C8.17317 8.3966 7.81455 8.43698 7.45635 8.45671C7.26935 8.46682 7.21698 8.39747 7.21821 8.21834C7.22444 7.41492 7.22117 6.60943 7.22154 5.80389Z" fill="#00AEFF"/>
<path d="M19.4611 5.81875C19.4611 6.60241 19.4565 7.38649 19.464 8.17013C19.466 8.36942 19.4058 8.44344 19.2009 8.43458C18.8418 8.41904 18.4812 8.42154 18.1204 8.43458C18.005 8.4392 17.97 8.39507 17.9542 8.30426C17.9477 8.24844 17.9458 8.19219 17.9484 8.13611C17.9484 6.57551 17.9484 5.01491 17.9484 3.45432C17.9484 3.18146 17.9526 3.1781 18.2306 3.1781H19.1643C19.4585 3.1781 19.4594 3.1781 19.4598 3.48669C19.4598 4.26362 19.4598 5.04042 19.4598 5.81707L19.4611 5.81875Z" fill="#00AEFF"/>
<path d="M8.87142 1.56793C8.87475 1.68582 8.85461 1.80319 8.81222 1.91305C8.76984 2.0229 8.70602 2.12302 8.62464 2.20743C8.5432 2.29183 8.44586 2.35881 8.33831 2.40438C8.23082 2.44995 8.11533 2.47317 7.99876 2.47267C7.42198 2.47603 7.06748 2.09009 7.06544 1.5713C7.06292 1.04199 7.42987 0.702713 7.99086 0.703554C8.52649 0.704395 8.86852 1.04115 8.87142 1.56793Z" fill="#00AEFF"/>
<path d="M18.7295 0.704662C19.2506 0.647065 19.6225 1.14316 19.6201 1.5476C19.6167 2.06555 19.2099 2.47252 18.7399 2.47252C18.1648 2.47252 17.8078 2.10508 17.8116 1.55391C17.8153 1.03931 18.181 0.700037 18.7295 0.704662Z" fill="#00AEFF"/>
<path d="M24.8039 14.0225C24.8039 13.6584 24.8093 13.2944 24.801 12.9294C24.7972 12.7781 24.8396 12.7104 24.9992 12.7192C25.1856 12.7297 25.3725 12.7297 25.559 12.7192C25.7086 12.7108 25.751 12.7743 25.7489 12.9156C25.7431 13.3217 25.7489 13.7274 25.7489 14.1347C25.7489 14.4169 25.7489 14.4173 26.0173 14.4181C26.3838 14.4181 26.7508 14.4236 27.1169 14.4181C27.2632 14.4152 27.3176 14.4736 27.3134 14.6153C27.3084 14.7969 27.3076 14.9794 27.3134 15.1619C27.3176 15.3077 27.2553 15.3544 27.1136 15.3531C26.408 15.3472 25.7025 15.3472 24.9971 15.3531C24.8513 15.3531 24.801 15.3031 24.8035 15.1581C24.8097 14.7797 24.8035 14.4013 24.8035 14.023L24.8039 14.0225Z" fill="#00AEFF"/>
</g>
<defs>
<clipPath id="clip0_37_389">
<rect width="29.5455" height="25" fill="white" transform="translate(0.727539 0.5)"/>
</clipPath>
</defs>
</svg>
