<svg width="40" height="41" viewBox="0 0 40 41" fill="none" xmlns="http://www.w3.org/2000/svg">
<g clip-path="url(#clip0_72_1080)">
<path d="M33.9998 5.83333H33.3332V7.16666H33.9998C35.1044 7.16666 35.9998 8.06208 35.9998 9.16666V27.1667H3.99984V9.16666C3.99984 8.06208 4.89525 7.16666 5.99984 7.16666H6.6665V5.83333H5.99984C4.15984 5.83549 2.66867 7.32666 2.6665 9.16666V29.1667C2.66867 31.0067 4.15984 32.4978 5.99984 32.5H15.7418L13.5198 39.1667H11.3332V40.5H28.6665V39.1667H26.4798L24.2578 32.5H33.9998C35.8398 32.4978 37.331 31.0067 37.3332 29.1667V9.16666C37.331 7.32666 35.8398 5.83549 33.9998 5.83333ZM25.0745 39.1667H14.9252L17.1472 32.5H22.8525L25.0745 39.1667ZM35.9998 29.1667C35.9998 30.2712 35.1044 31.1667 33.9998 31.1667H5.99984C4.89525 31.1667 3.99984 30.2712 3.99984 29.1667V28.5H35.9998V29.1667Z" fill="#00AEFF"/>
<path d="M30 0.5H10C8.89542 0.5 8 1.39542 8 2.5V25.8333H9.33333V2.5C9.33333 2.13183 9.63183 1.83333 10 1.83333H30C30.3682 1.83333 30.6667 2.13183 30.6667 2.5V25.8333H32V2.5C32 1.39542 31.1046 0.5 30 0.5Z" fill="#00AEFF"/>
<path d="M29.2702 16.5033C28.9544 14.9486 27.5867 13.8318 26.0002 13.8333H17.3162C18.2279 12.6558 18.2279 11.0108 17.3162 9.83334H26.0002C27.8402 9.83117 29.3313 8.34 29.3335 6.5C29.3335 4.65909 27.8411 3.16667 26.0002 3.16667C24.1592 3.16667 22.6668 4.65909 22.6668 6.5C22.6692 7.22367 22.9097 7.92642 23.3508 8.5H14.6668C12.8259 8.5 11.3335 9.99242 11.3335 11.8333C11.3335 13.6743 12.8259 15.1667 14.6668 15.1667H23.3508C22.4391 16.3442 22.4391 17.9892 23.3508 19.1667H15.3335C13.4926 19.1667 12.0002 20.6591 12.0002 22.5C12.0002 24.3409 13.4926 25.8333 15.3335 25.8333C17.1744 25.8333 18.6668 24.3409 18.6668 22.5C18.6644 21.7763 18.424 21.0736 17.9828 20.5H26.6668V20.4333C28.471 20.067 29.6365 18.3075 29.2702 16.5033ZM26.0002 4.50001C27.1047 4.50001 28.0002 5.39542 28.0002 6.5C28.0002 7.60459 27.1047 8.5 26.0002 8.5C24.8956 8.5 24.0002 7.60459 24.0002 6.5C24.0002 5.39542 24.8956 4.50001 26.0002 4.50001ZM14.6668 13.8333C13.5622 13.8333 12.6668 12.9379 12.6668 11.8333C12.6668 10.7288 13.5622 9.83334 14.6668 9.83334C15.7714 9.83334 16.6668 10.7288 16.6668 11.8333C16.6668 12.9379 15.7714 13.8333 14.6668 13.8333ZM15.3335 24.5C14.2289 24.5 13.3335 23.6046 13.3335 22.5C13.3335 21.3954 14.2289 20.5 15.3335 20.5C16.4381 20.5 17.3335 21.3954 17.3335 22.5C17.3335 23.6046 16.4381 24.5 15.3335 24.5ZM26.0002 19.1667C24.8956 19.1667 24.0002 18.2713 24.0002 17.1667C24.0002 16.0621 24.8956 15.1667 26.0002 15.1667C27.1047 15.1667 28.0002 16.0621 28.0002 17.1667C28.0002 18.2713 27.1047 19.1667 26.0002 19.1667Z" fill="#00AEFF"/>
<path d="M26.6663 5.83333H25.333V7.16666H26.6663V5.83333Z" fill="#00AEFF"/>
<path d="M15.3333 11.1667H14V12.5H15.3333V11.1667Z" fill="#00AEFF"/>
<path d="M26.6663 16.5H25.333V17.8333H26.6663V16.5Z" fill="#00AEFF"/>
<path d="M15.9998 21.8333H14.6665V23.1667H15.9998V21.8333Z" fill="#00AEFF"/>
<path d="M11.9998 3.16667H10.6665V4.50001H11.9998V3.16667Z" fill="#00AEFF"/>
<path d="M14.6668 3.16667H13.3335V4.50001H14.6668V3.16667Z" fill="#00AEFF"/>
<path d="M17.3333 3.16667H16V4.50001H17.3333V3.16667Z" fill="#00AEFF"/>
</g>
<defs>
<clipPath id="clip0_72_1080">
<rect width="40" height="40" fill="white" transform="translate(0 0.5)"/>
</clipPath>
</defs>
</svg>
