<svg width="40" height="41" viewBox="0 0 40 41" fill="none" xmlns="http://www.w3.org/2000/svg">
<g clip-path="url(#clip0_72_86)">
<path d="M34.8445 20.0948C36.4994 19.4052 37.6613 17.8129 37.6613 15.9616C37.6613 13.481 35.5758 11.4629 33.0119 11.4629C30.4481 11.4629 28.3626 13.4807 28.3626 15.9616C28.3626 17.7913 29.4987 19.3661 31.1229 20.0684C29.5855 20.5026 28.2242 21.48 27.2635 22.8726C26.0223 21.1378 24.219 19.8668 22.1387 19.351C24.3042 18.5194 25.8471 16.4332 25.8471 13.9913C25.8471 10.821 23.2519 8.24194 20.0623 8.24194C16.8726 8.24194 14.2774 10.821 14.2774 13.9913C14.2774 16.4332 15.82 18.519 17.9858 19.351C15.87 19.8758 14.0423 21.1826 12.7994 22.9632C11.8358 21.5207 10.4529 20.5097 8.88064 20.0668C10.5029 19.3639 11.6377 17.79 11.6377 15.9613C11.6377 13.4807 9.55194 11.4626 6.98839 11.4626C4.42484 11.4626 2.33871 13.4807 2.33871 15.9616C2.33871 17.8129 3.50065 19.4055 5.15548 20.0948C2.18548 20.9826 0 23.8945 0 27.3429V30.4948C0 30.6732 0.144516 30.8174 0.322581 30.8174H11.0781V32.4355C11.0781 32.6139 11.2226 32.7581 11.4006 32.7581H28.7235C28.9016 32.7581 29.0461 32.6139 29.0461 32.4355V30.8174H39.6774C39.8555 30.8174 40 30.6732 40 30.4948V27.3429C40 23.8945 37.8145 20.9826 34.8445 20.0948ZM29.0077 15.9616C29.0077 13.8368 30.8039 12.1081 33.0119 12.1081C35.2197 12.1081 37.0161 13.8368 37.0161 15.9616C37.0161 18.0865 35.22 19.8152 33.0119 19.8152C30.8042 19.8152 29.0077 18.0865 29.0077 15.9616ZM14.9226 13.9913C14.9226 11.1771 17.2281 8.8871 20.0623 8.8871C22.8965 8.8871 25.2019 11.1771 25.2019 13.9913C25.2019 16.8055 22.8965 19.0952 20.0623 19.0952C17.2281 19.0952 14.9226 16.8058 14.9226 13.9913ZM2.98387 15.9616C2.98387 13.8368 4.78 12.1081 6.98806 12.1081C9.19613 12.1081 10.9923 13.8368 10.9923 15.9616C10.9923 18.0865 9.19613 19.8152 6.98806 19.8152C4.78 19.8152 2.98387 18.0865 2.98387 15.9616ZM3.16032 30.1723L3.10355 28.609C3.0971 28.431 2.94968 28.2823 2.76935 28.2984C2.59129 28.3048 2.45226 28.4542 2.45871 28.6323L2.51452 30.1719H0.645161V27.3426C0.645161 23.5474 3.52097 20.46 7.05613 20.46C9.23581 20.46 11.2242 21.6171 12.4132 23.5613C11.5677 24.991 11.0784 26.6736 11.0784 28.4736V30.1723H3.16032ZM28.401 32.1129H26.3552V29.6152C26.3552 29.4368 26.2106 29.2926 26.0326 29.2926C25.8545 29.2926 25.71 29.4368 25.71 29.6152V32.1129H14.5203V29.6152C14.5203 29.4368 14.3758 29.2926 14.1977 29.2926C14.0197 29.2926 13.8752 29.4368 13.8752 29.6152V32.1129H11.7235V28.4739C11.7235 23.6581 15.4645 19.7407 20.0626 19.7407C24.6606 19.7407 28.4013 23.6584 28.4013 28.4739L28.401 32.1129ZM39.3548 30.1723H37.4855L37.5413 28.6326C37.5477 28.4545 37.4087 28.3048 37.2306 28.2987C37.0597 28.2839 36.9029 28.4313 36.8965 28.6094L36.8397 30.1726H29.0461V28.4739C29.0461 26.6316 28.5326 24.9132 27.65 23.4623C28.8461 21.5803 30.8106 20.4603 32.9439 20.4603C36.4787 20.4603 39.3548 23.5477 39.3548 27.3429V30.1723Z" fill="#00AEFF"/>
</g>
<defs>
<clipPath id="clip0_72_86">
<rect width="40" height="40" fill="white" transform="translate(0 0.5)"/>
</clipPath>
</defs>
</svg>
