<svg width="50" height="50" viewBox="0 0 50 50" fill="none" xmlns="http://www.w3.org/2000/svg">
<path d="M26.1048 43.2921C25.4938 43.903 24.5063 43.903 23.8954 43.2921L6.70791 26.1046C6.09697 25.4937 6.09697 24.5062 6.70791 23.8952C7.31885 23.2843 8.30635 23.2843 8.91729 23.8952L25.0001 39.978L41.0829 23.8952C41.6938 23.2843 42.6813 23.2843 43.2923 23.8952C43.9032 24.5062 43.9032 25.4937 43.2923 26.1046L26.1048 43.2921Z" fill="#00AEFF"/>
<path d="M23.8954 26.1046L6.70791 8.91709C6.09697 8.30615 6.09697 7.31865 6.70791 6.70771C7.31885 6.09678 8.30635 6.09678 8.91729 6.70771L25.0001 22.7905L41.0829 6.70771C41.6938 6.09678 42.6813 6.09678 43.2923 6.70771C43.9032 7.31865 43.9032 8.30615 43.2923 8.91709L26.1048 26.1046C25.4938 26.7155 24.5063 26.7155 23.8954 26.1046Z" fill="#00AEFF"/>
</svg>
