<?xml version="1.0" encoding="UTF-8"?>
<!DOCTYPE svg PUBLIC "-//W3C//DTD SVG 1.1//EN" "http://www.w3.org/Graphics/SVG/1.1/DTD/svg11.dtd">
<!-- Creator: CorelDRAW -->
<svg xmlns="http://www.w3.org/2000/svg" xml:space="preserve" width="70mm" height="67.2409mm" version="1.1" style="shape-rendering:geometricPrecision; text-rendering:geometricPrecision; image-rendering:optimizeQuality; fill-rule:evenodd; clip-rule:evenodd"
viewBox="0 0 7081.68 6802.55"
 xmlns:xlink="http://www.w3.org/1999/xlink"
 xmlns:xodm="http://www.corel.com/coreldraw/odm/2003">
 <defs>
  <style type="text/css">
   <![CDATA[
    .fil1 {fill:#FEFEFE;fill-rule:nonzero}
    .fil2 {fill:#2B2A29;fill-rule:nonzero}
    .fil0 {fill:url(#id8)}
    .fil3 {fill:url(#id9);fill-rule:nonzero}
    .fil5 {fill:url(#id10);fill-rule:nonzero}
    .fil6 {fill:url(#id11);fill-rule:nonzero}
    .fil4 {fill:url(#id12);fill-rule:nonzero}
    .fil7 {fill:url(#id13);fill-rule:nonzero}
    .fil9 {fill:url(#id14);fill-rule:nonzero}
    .fil10 {fill:url(#id15);fill-rule:nonzero}
    .fil8 {fill:url(#id16);fill-rule:nonzero}
   ]]>
  </style>
   <mask id="id0">
  <linearGradient id="id1" gradientUnits="userSpaceOnUse" x1="8307.17" y1="5298.14" x2="3555.04" y2="-932.43">
   <stop offset="0" style="stop-opacity:0; stop-color:white"/>
   <stop offset="0.431373" style="stop-opacity:0.501961; stop-color:white"/>
   <stop offset="1" style="stop-opacity:1; stop-color:white"/>
  </linearGradient>
    <rect style="fill:url(#id1)" x="4937.43" y="1267.23" width="2148.11" height="2042.01"/>
   </mask>
   <mask id="id2">
  <linearGradient id="id3" gradientUnits="userSpaceOnUse" x1="2430.22" y1="6337.49" x2="1017.8" y2="4485.65">
   <stop offset="0" style="stop-opacity:0; stop-color:white"/>
   <stop offset="0.431373" style="stop-opacity:0.501961; stop-color:white"/>
   <stop offset="1" style="stop-opacity:1; stop-color:white"/>
  </linearGradient>
    <rect style="fill:url(#id3)" x="1408.17" y="5093.89" width="677.66" height="695.63"/>
   </mask>
   <mask id="id4">
  <linearGradient id="id5" gradientUnits="userSpaceOnUse" x1="3622.91" y1="7299.56" x2="2534.93" y2="5873.1">
   <stop offset="0" style="stop-opacity:0; stop-color:white"/>
   <stop offset="0.431373" style="stop-opacity:0.501961; stop-color:white"/>
   <stop offset="1" style="stop-opacity:1; stop-color:white"/>
  </linearGradient>
    <rect style="fill:url(#id5)" x="2740.4" y="6412.71" width="712.46" height="393.7"/>
   </mask>
   <mask id="id6">
  <linearGradient id="id7" gradientUnits="userSpaceOnUse" x1="7763.63" y1="6392.4" x2="5054.61" y2="3964.83">
   <stop offset="0" style="stop-opacity:0; stop-color:white"/>
   <stop offset="0.431373" style="stop-opacity:0.501961; stop-color:white"/>
   <stop offset="1" style="stop-opacity:1; stop-color:white"/>
  </linearGradient>
    <rect style="fill:url(#id7)" x="5346.73" y="4261.9" width="1548.37" height="1316.92"/>
   </mask>
  <linearGradient id="id8" gradientUnits="userSpaceOnUse" x1="1173.56" y1="6995.49" x2="6843.08" y2="-15.65">
   <stop offset="0" style="stop-opacity:1; stop-color:#613C8D"/>
   <stop offset="0.0392157" style="stop-opacity:1; stop-color:#613C8D"/>
   <stop offset="0.541176" style="stop-opacity:1; stop-color:#DA418F"/>
   <stop offset="0.580392" style="stop-opacity:1; stop-color:#DA418F"/>
   <stop offset="1" style="stop-opacity:1; stop-color:#F4AC23"/>
  </linearGradient>
  <linearGradient id="id9" gradientUnits="userSpaceOnUse" x1="5524.11" y1="5723.62" x2="6633.76" y2="3801.69">
   <stop offset="0" style="stop-opacity:1; stop-color:#613C8D"/>
   <stop offset="0.419608" style="stop-opacity:1; stop-color:#8454C4"/>
   <stop offset="1" style="stop-opacity:1; stop-color:#A76DFB"/>
  </linearGradient>
  <linearGradient id="id10" gradientUnits="userSpaceOnUse" xlink:href="#id9" x1="2982.65" y1="677.41" x2="3406.54" y2="-56.78">
  </linearGradient>
  <linearGradient id="id11" gradientUnits="userSpaceOnUse" xlink:href="#id9" x1="4065.91" y1="6042.58" x2="4489.8" y2="5308.39">
  </linearGradient>
  <linearGradient id="id12" gradientUnits="userSpaceOnUse" xlink:href="#id9" x1="164.99" y1="4728.21" x2="876.04" y2="3496.65">
  </linearGradient>
  <linearGradient id="id13" gradientUnits="userSpaceOnUse" x1="8307.17" y1="5298.14" x2="3555.04" y2="-932.43">
   <stop offset="0" style="stop-opacity:1; stop-color:#7EC0EA"/>
   <stop offset="0.431373" style="stop-opacity:1; stop-color:#707EBC"/>
   <stop offset="1" style="stop-opacity:1; stop-color:#613C8D"/>
  </linearGradient>
  <linearGradient id="id14" gradientUnits="userSpaceOnUse" xlink:href="#id13" x1="3622.91" y1="7299.56" x2="2534.93" y2="5873.1">
  </linearGradient>
  <linearGradient id="id15" gradientUnits="userSpaceOnUse" xlink:href="#id13" x1="7763.63" y1="6392.4" x2="5054.61" y2="3964.83">
  </linearGradient>
  <linearGradient id="id16" gradientUnits="userSpaceOnUse" xlink:href="#id13" x1="2430.22" y1="6337.49" x2="1017.8" y2="4485.65">
  </linearGradient>
 </defs>
 <g id="OBJECTS">
  <metadata id="CorelCorpID_0Corel-Layer"/>
  <path class="fil0" d="M2920.71 4328.81c17.4,171.99 -26.92,257.56 -134.56,319.41l-271.78 172.48c-97,45.45 -179.19,-44.62 -225.87,-75.43 -211.63,-137.23 -516.52,-129.57 -721.46,83.34 -72.94,76.52 -120.74,170.68 -141.94,269.86 -32.71,151.64 -4.32,315.13 88.75,447.02 134.39,189.74 358.99,269.87 568.12,230.34 114.28,-21.19 230.71,21.57 308.68,107.45l227.47 250.47c65.03,71.5 90.91,167.45 83.01,263.76 -5.75,68.99 7.55,140.5 42.4,206.26 0,0 0.35,0.36 0.72,1.08 99.54,185.42 332.04,252.98 516.02,148.41 121.82,-69.36 191.18,-202.31 188.66,-336.35 -1.08,-49.59 -11.86,-99.9 -33.78,-146.61 -64.32,-138.72 -200.51,-217.77 -341.38,-217.41 -99.89,0 -193.69,-48.16 -260.89,-122.18l-214.52 -236.08c-78.7,-86.61 -108.89,-207.35 -76.91,-319.46 25.3,-88.73 11.46,-216.86 77.44,-261.42l356.24 -240.57c138.63,-74.55 244.11,-46.64 379.58,29.52 264.12,141.49 655.13,97.03 876.38,-141.29 182.55,-176.44 256.22,-418.63 224.24,-647.9 -10.78,-84.08 -36.66,-166.73 -76.18,-243.63 -59.29,-115.7 -54.27,-253.7 22.99,-358.27l152.01 -205.19c93.78,-126.85 260.89,-169.97 407.14,-111.75 378.39,150.2 816.08,154.16 1221.77,-28.75 716.54,-323.06 1084.15,-1145.6 846.63,-1894.84 -285.68,-900.16 -1290.77,-1343.59 -2147.81,-949.04 -710.42,327.01 -1071.57,1146.68 -834.4,1891.96 61.09,190.82 154.52,361.15 272.04,507.04 97.73,121.46 102.04,293.23 9.34,418.64l-148.41 200.15c-77.63,104.58 -202.17,154.36 -330.45,131 -86.71,-21.83 -230.35,-20.84 -330.26,5.3 -126.49,29.12 -241.6,-6.93 -323.89,-107.54l-181.11 -222.08c-92.72,-113.56 -98.82,-271.66 -23.71,-397.43 253.7,-424.03 198.71,-987.84 -184.36,-1354.75 -353.59,-338.49 -894.77,-394.56 -1308.74,-152.72 -42.4,24.44 -83.37,52.48 -122.9,83.38 -501.65,394.2 -560.22,1122.95 -141.94,1591.89 122.17,136.92 271.66,235.74 432.3,296.11 308.54,109.06 586.23,70.83 740.53,9.8 138.71,-48.52 299.41,-11.59 392.11,102.32l176.09 215.24c81.57,100.26 93.3,222.6 38.32,339.38 -78.19,138.79 -88.46,320.22 -71.73,449.07z"/>
  <path class="fil1" d="M6431.53 1722.17c0,522.38 -423.45,945.83 -945.82,945.83 -522.38,0 -945.83,-423.45 -945.83,-945.83 0,-522.37 423.45,-945.83 945.83,-945.83 522.37,0 945.82,423.46 945.82,945.83z"/>
  <path class="fil2" d="M6078.95 1722.17c0,327.64 -265.61,593.24 -593.23,593.24 -327.64,0 -593.24,-265.6 -593.24,-593.24 0,-327.63 265.6,-593.23 593.24,-593.23 327.62,0 593.23,265.6 593.23,593.23z"/>
  <path class="fil3" d="M6891.25 4762.65c0,448.62 -363.67,812.31 -812.3,812.31 -448.63,0 -812.32,-363.68 -812.32,-812.31 0,-448.62 363.68,-812.31 812.32,-812.31 448.62,0 812.3,363.68 812.3,812.31z"/>
  <path class="fil4" d="M1041.05 4112.42c0,287.48 -233.05,520.52 -520.52,520.52 -287.49,0 -520.52,-233.05 -520.52,-520.52 0,-287.48 233.04,-520.52 520.52,-520.52 287.48,0 520.52,233.05 520.52,520.52z"/>
  <path class="fil5" d="M3504.91 310.31c0,171.38 -138.93,310.3 -310.31,310.3 -171.38,0 -310.31,-138.92 -310.31,-310.3 0,-171.38 138.93,-310.31 310.31,-310.31 171.38,0 310.31,138.93 310.31,310.31z"/>
  <path class="fil6" d="M4588.16 5675.49c0,171.37 -138.93,310.3 -310.31,310.3 -171.39,0 -310.31,-138.93 -310.31,-310.3 0,-171.39 138.92,-310.32 310.31,-310.32 171.38,0 310.31,138.93 310.31,310.32z"/>
  <path class="fil7" style="mask:url(#id0)" d="M6163.06 3165.92c-405.69,182.91 -843.38,178.95 -1221.77,28.75 0,0 338.51,77.22 803.05,-45.09 769.28,-202.52 1462.11,-905.51 1265.34,-1878.5 237.53,749.23 -130.08,1571.78 -846.63,1894.84z"/>
  <path class="fil8" style="mask:url(#id2)" d="M2081.97 5775.83c-209.13,39.54 -433.73,-40.6 -568.12,-230.34 -93.07,-131.88 -121.46,-295.38 -88.75,-447.02l0.35 -0.73c0,0 19.77,626.71 656.52,678.08z"/>
  <path class="fil9" style="mask:url(#id4)" d="M3448.93 6416.91c2.52,134.04 -66.84,266.99 -188.66,336.35 -183.98,104.57 -416.48,37.01 -516.02,-148.41 9.35,11.14 103.13,116.07 361.86,78.7 273.1,-39.54 342.46,-266.99 342.46,-266.99l0.35 0.35z"/>
  <path class="fil10" style="mask:url(#id6)" d="M6721.33 4265.75c0.56,1.55 0.93,3.17 1.48,4.71 50.43,105.77 78.73,224.13 78.73,349.12 0,448.61 -363.68,812.3 -812.32,812.3 -259.21,0 -489.88,-121.56 -638.63,-310.62 132.52,268.61 408.58,453.7 728.36,453.7 448.62,0 812.3,-363.68 812.3,-812.31 0,-187.22 -63.49,-359.52 -169.92,-496.9z"/>
 </g>
</svg>
