<svg width="20" height="18" viewBox="0 0 20 18" fill="none" xmlns="http://www.w3.org/2000/svg">
<g clip-path="url(#clip0_6_940)">
<path d="M16.7681 0.0202637H3.23195C2.37509 0.0212252 1.55359 0.362037 0.947693 0.967929C0.341794 1.57382 0.000971867 2.39531 0 3.25218L0 14.4822C0.000971867 15.339 0.341794 16.1605 0.947693 16.7664C1.55359 17.3723 2.37509 17.7131 3.23195 17.7141H16.7681C17.6249 17.7131 18.4464 17.3723 19.0523 16.7664C19.6582 16.1605 19.999 15.339 20 14.4822V3.25218C19.999 2.39532 19.6582 1.57382 19.0523 0.967931C18.4464 0.362038 17.6249 0.0212252 16.7681 0.0202637ZM16.7681 1.27026C17.0964 1.26983 17.4197 1.35149 17.7084 1.5078L10 8.04761L2.29156 1.5078C2.58032 1.35144 2.90358 1.26973 3.23195 1.27011L16.7681 1.27026ZM18.75 14.4822C18.7494 15.0076 18.5404 15.5114 18.1689 15.883C17.7973 16.2545 17.2935 16.4635 16.7681 16.4641H3.23195C2.70651 16.4634 2.20277 16.2544 1.83122 15.8829C1.45967 15.5114 1.25065 15.0076 1.25 14.4822V3.25218C1.2498 2.96456 1.3126 2.68039 1.43398 2.41964L9.59566 9.34374C9.7086 9.43954 9.85187 9.49212 9.99996 9.49212C10.148 9.49212 10.2913 9.43954 10.4043 9.34374L18.566 2.41964C18.6874 2.68039 18.7502 2.96456 18.75 3.25218V14.4822Z" fill="black"/>
</g>
<defs>
<clipPath id="clip0_6_940">
<rect width="20" height="17.7344" fill="white"/>
</clipPath>
</defs>
</svg>
