<svg width="40" height="41" viewBox="0 0 40 41" fill="none" xmlns="http://www.w3.org/2000/svg">
<g clip-path="url(#clip0_72_18)">
<path d="M25.636 34.316H20.587V24.2573C20.587 23.9331 20.3242 23.6703 20 23.6703C19.6757 23.6703 19.4129 23.9331 19.4129 24.2573V34.316H14.3639C13.3496 34.316 12.5244 35.1413 12.5244 36.1556V38.6605C12.5244 39.6748 13.3496 40.5 14.3639 40.5H25.636C26.6503 40.5 27.4755 39.6748 27.4755 38.6605V36.1556C27.4755 35.1413 26.6503 34.316 25.636 34.316ZM26.3013 38.6605C26.3013 39.0274 26.0028 39.3258 25.636 39.3258H14.3639C13.9971 39.3258 13.6986 39.0274 13.6986 38.6605V36.1556C13.6986 35.7887 13.9971 35.4902 14.3639 35.4902H25.636C26.0028 35.4902 26.3013 35.7887 26.3013 36.1556V38.6605Z" fill="#00AEFF"/>
<path d="M16.8688 36.8209H15.6164C15.2922 36.8209 15.0293 37.0838 15.0293 37.408C15.0293 37.7322 15.2922 37.9951 15.6164 37.9951H16.8688C17.1931 37.9951 17.4559 37.7322 17.4559 37.408C17.4559 37.0838 17.1931 36.8209 16.8688 36.8209Z" fill="#00AEFF"/>
<path d="M24.384 36.8209H19.3742C19.05 36.8209 18.7871 37.0838 18.7871 37.408C18.7871 37.7322 19.05 37.9951 19.3742 37.9951H24.384C24.7082 37.9951 24.9711 37.7322 24.9711 37.408C24.9711 37.0838 24.7082 36.8209 24.384 36.8209Z" fill="#00AEFF"/>
<path d="M38.1603 28.0538H31.2718C30.9784 28.0538 30.701 28.1233 30.4547 28.2459L26.051 23.8422C25.8218 23.613 25.4501 23.613 25.2208 23.8422C24.9915 24.0715 24.9915 24.4432 25.2208 24.6725L29.6245 29.0762C29.5017 29.3226 29.4324 29.5999 29.4324 29.8934V32.3983C29.4324 33.4126 30.2576 34.2378 31.2719 34.2378H38.1604C39.1747 34.2378 39.9999 33.4126 39.9999 32.3983V29.8934C39.9998 28.879 39.1746 28.0538 38.1603 28.0538ZM38.8256 32.3983C38.8256 32.7651 38.5272 33.0636 38.1603 33.0636H31.2718C30.9049 33.0636 30.6065 32.7651 30.6065 32.3983V29.8934C30.6065 29.5265 30.9049 29.228 31.2718 29.228H38.1603C38.5272 29.228 38.8256 29.5265 38.8256 29.8934V32.3983Z" fill="#00AEFF"/>
<path d="M33.1508 30.5587H32.5246C32.2004 30.5587 31.9375 30.8216 31.9375 31.1458C31.9375 31.47 32.2004 31.7329 32.5246 31.7329H33.1508C33.475 31.7329 33.7379 31.47 33.7379 31.1458C33.7379 30.8216 33.475 30.5587 33.1508 30.5587Z" fill="#00AEFF"/>
<path d="M36.9079 30.5587H35.6554C35.3312 30.5587 35.0684 30.8216 35.0684 31.1458C35.0684 31.47 35.3312 31.7329 35.6554 31.7329H36.9079C37.2321 31.7329 37.495 31.47 37.495 31.1458C37.495 30.8216 37.2321 30.5587 36.9079 30.5587Z" fill="#00AEFF"/>
<path d="M7.47551 30.5587H6.84929C6.52506 30.5587 6.26221 30.8216 6.26221 31.1458C6.26221 31.47 6.52506 31.7329 6.84929 31.7329H7.47551C7.79974 31.7329 8.0626 31.47 8.0626 31.1458C8.0626 30.8216 7.79974 30.5587 7.47551 30.5587Z" fill="#00AEFF"/>
<path d="M4.34441 30.5587H3.09197C2.76774 30.5587 2.50488 30.8216 2.50488 31.1458C2.50488 31.47 2.76774 31.7329 3.09197 31.7329H4.34441C4.66864 31.7329 4.9315 31.47 4.9315 31.1458C4.9315 30.8216 4.66864 30.5587 4.34441 30.5587Z" fill="#00AEFF"/>
<path d="M14.7791 24.6725C15.0084 24.4432 15.0084 24.0715 14.7791 23.8422C14.5498 23.613 14.1781 23.613 13.9489 23.8422L9.54513 28.2459C9.29879 28.1233 9.02145 28.0538 8.72806 28.0538H1.83961C0.825205 28.0538 0 28.879 0 29.8934V32.3983C0 33.4126 0.825205 34.2378 1.83953 34.2378H8.72798C9.74231 34.2378 10.5675 33.4126 10.5675 32.3983V29.8934C10.5675 29.5999 10.4981 29.3226 10.3753 29.0761L14.7791 24.6725ZM9.39335 32.3983C9.39335 32.7651 9.09487 33.0636 8.72798 33.0636H1.83953C1.47264 33.0636 1.17417 32.7651 1.17417 32.3983V29.8934C1.17417 29.5265 1.47264 29.228 1.83953 29.228H8.72798C9.09487 29.228 9.39335 29.5265 9.39335 29.8934V32.3983Z" fill="#00AEFF"/>
<path d="M11.8591 22.3395H28.1409C29.1552 22.3395 29.9804 21.5143 29.9804 20.5V19.1743C29.9804 17.8413 29.1308 16.6625 27.8662 16.2409L23.943 14.9332C23.8683 14.9083 23.7921 14.8995 23.7182 14.9045V13.7775C24.5276 12.8679 24.9706 11.7113 24.9706 10.4804V9.09225C25.6978 8.84661 26.2231 8.1584 26.2231 7.34932V4.2182C26.2231 2.16802 24.555 0.5 22.5049 0.5H17.4951C16.6666 0.5 15.9642 1.05053 15.7347 1.80505C14.6178 2.0398 13.7769 3.0326 13.7769 4.2182V7.34932C13.7769 8.15832 14.3021 8.84654 15.0293 9.09225V10.2967C15.0293 11.5906 15.5039 12.7856 16.2818 13.6986V14.9046C16.2078 14.8997 16.1317 14.9084 16.0569 14.9333L12.1337 16.2411C10.8692 16.6626 10.0195 17.8414 10.0195 19.1743V20.5C10.0195 21.5143 10.8447 22.3395 11.8591 22.3395ZM16.8688 16.0773C17.1931 16.0773 17.4559 15.8144 17.4559 15.4902V14.7138C18.1612 15.156 18.9774 15.4227 19.8475 15.4488C19.8991 15.4504 19.9504 15.4511 20.0018 15.4511C20.9109 15.4511 21.782 15.2083 22.544 14.7523V15.4902C22.544 15.8144 22.8069 16.0773 23.1311 16.0773C23.1393 16.0773 23.1473 16.0764 23.1554 16.076C23.0025 17.524 21.6459 18.6605 20 18.6605C18.354 18.6605 16.9975 17.524 16.8445 16.076C16.8526 16.0764 16.8606 16.0773 16.8688 16.0773ZM14.951 7.34932V4.2182C14.951 3.50603 15.5305 2.92661 16.2426 2.92661C16.5669 2.92661 16.8297 2.66376 16.8297 2.33953C16.8297 1.97264 17.1282 1.67417 17.4951 1.67417H22.5049C23.9076 1.67417 25.0489 2.81538 25.0489 4.2182V7.34932C25.0489 7.46219 25.0204 7.56849 24.9706 7.6618V6.72309C24.9706 5.70877 24.1454 4.88356 23.1311 4.88356H16.8688C15.8545 4.88356 15.0293 5.70877 15.0293 6.72309V7.6618C14.9795 7.56849 14.951 7.46219 14.951 7.34932ZM16.2035 6.72309C16.2035 6.3562 16.502 6.05773 16.8688 6.05773H23.1311C23.498 6.05773 23.7964 6.3562 23.7964 6.72309V10.4804C23.7964 11.516 23.387 12.4838 22.6436 13.2052C21.9005 13.9263 20.9193 14.3061 19.8827 14.2752C17.854 14.2143 16.2035 12.4295 16.2035 10.2966V6.72309ZM11.1937 19.1743C11.1937 18.3474 11.7207 17.6163 12.505 17.3549L15.6888 16.2937C15.9505 18.286 17.7834 19.8346 20 19.8346C22.2166 19.8346 24.0494 18.286 24.3111 16.2937L27.4949 17.3549C28.2793 17.6163 28.8062 18.3475 28.8062 19.1743V20.5C28.8062 20.8669 28.5077 21.1654 28.1409 21.1654H11.8591C11.4922 21.1654 11.1937 20.8669 11.1937 20.5V19.1743Z" fill="#00AEFF"/>
</g>
<defs>
<clipPath id="clip0_72_18">
<rect width="40" height="40" fill="white" transform="translate(0 0.5)"/>
</clipPath>
</defs>
</svg>
