<svg width="40" height="41" viewBox="0 0 40 41" fill="none" xmlns="http://www.w3.org/2000/svg">
<g clip-path="url(#clip0_72_2)">
<path d="M10.8869 7.96336C10.8869 9.80828 12.3878 11.3093 14.2328 11.3093C14.9672 11.3093 15.6258 11.0684 16.1373 10.6129C16.2375 10.5236 16.3327 10.4254 16.4205 10.3209C16.6285 10.073 16.5961 9.70336 16.3482 9.49539C16.1002 9.28734 15.7307 9.31977 15.5227 9.56766C15.4713 9.62891 15.4159 9.68617 15.3579 9.73781C15.0602 10.003 14.6816 10.1374 14.2328 10.1374C13.0341 10.1374 12.0588 9.16219 12.0588 7.96336C12.0588 6.76453 13.034 5.7893 14.2328 5.7893C14.6686 5.7893 15.0887 5.91758 15.448 6.16023C15.7162 6.34141 16.0804 6.27086 16.2615 6.00266C16.4427 5.73453 16.3721 5.37031 16.1039 5.18914C15.5502 4.81508 14.9032 4.61742 14.2327 4.61742C12.3878 4.61742 10.8869 6.11844 10.8869 7.96336ZM21.2929 6.63797C21.2929 5.52383 20.3501 4.61742 19.1912 4.61742H17.7244C17.7241 4.61742 17.7237 4.61742 17.7234 4.61742C17.7231 4.61742 17.7228 4.61742 17.7226 4.61742C17.399 4.61742 17.1366 4.87977 17.1366 5.20336V10.7233C17.1366 11.0469 17.399 11.3092 17.7226 11.3092C18.0462 11.3092 18.3085 11.0469 18.3085 10.7233V8.88508L20.2671 11.1104C20.3829 11.242 20.5446 11.3092 20.7072 11.3092C20.8447 11.3092 20.9827 11.2611 21.0941 11.1631C21.337 10.9493 21.3606 10.5791 21.1468 10.3362L19.6307 8.61367C20.5792 8.41883 21.2929 7.60719 21.2929 6.63797ZM19.1912 7.48656C18.9891 7.48656 18.6291 7.48813 18.3171 7.48969C18.3155 7.18391 18.3139 6.83367 18.3139 6.63797C18.3139 6.4725 18.313 6.10914 18.312 5.7893H19.1911C19.6952 5.7893 20.1209 6.17797 20.1209 6.63797C20.1209 7.09797 19.6952 7.48656 19.1912 7.48656ZM32.1495 23.6477V21.6475C32.1495 20.0321 30.8352 18.7178 29.2198 18.7178H20.5859L20.5859 15.4266H28.525C30.1405 15.4266 31.4547 14.1124 31.4547 12.497V3.42969C31.4547 1.81422 30.1405 0.5 28.525 0.5H17.0629C16.7393 0.5 16.477 0.762344 16.477 1.08594C16.477 1.40953 16.7393 1.67188 17.0629 1.67188H28.5249C29.4942 1.67188 30.2827 2.46039 30.2827 3.42969V12.497C30.2827 13.4663 29.4942 14.2548 28.5249 14.2548H11.4751C10.5058 14.2548 9.71727 13.4663 9.71727 12.497V3.42969C9.71727 2.46039 10.5058 1.67188 11.4751 1.67188H14.7191C15.0427 1.67188 15.3051 1.40953 15.3051 1.08594C15.3051 0.762344 15.0427 0.5 14.7191 0.5H11.4751C9.85961 0.5 8.54539 1.81422 8.54539 3.42969V12.497C8.54539 14.1125 9.85961 15.4267 11.4751 15.4267H19.4139L19.414 18.7179H10.7802C9.16477 18.7179 7.85055 20.0321 7.85055 21.6476V23.6495C3.45383 23.9569 0 27.6309 0 32.0639C0 33.822 0.535156 35.5064 1.54758 36.9353C3.11797 39.1516 5.7525 40.5 8.43609 40.5C13.0376 40.5 16.8729 36.6956 16.8729 32.0639C16.8729 27.6089 13.402 23.9499 9.02234 23.6478V21.6476C9.02234 20.6784 9.81086 19.8898 10.7802 19.8898H29.2197C30.189 19.8898 30.9775 20.6783 30.9775 21.6476V23.6483C28.2394 23.8416 25.7213 25.3788 24.3069 27.758C24.1415 28.0363 24.233 28.3958 24.5111 28.5611C24.7894 28.7266 25.1489 28.6351 25.3141 28.357C26.6188 26.1623 29.0134 24.799 31.5634 24.799C35.5691 24.799 38.828 28.0579 38.828 32.0635C38.828 34.1733 37.9237 36.0755 36.4827 37.404C36.1328 36.022 35.2127 34.843 33.9512 34.1703C34.3242 33.6724 34.5455 33.0545 34.5455 32.3859C34.5455 31.812 34.5455 30.0812 34.5455 29.4623C34.5455 28.3647 33.6525 27.4717 32.5548 27.4717H30.572C29.4744 27.4717 28.5814 28.3648 28.5814 29.4623V32.3859C28.5814 33.0551 28.803 33.6734 29.1767 34.1716C28.7586 34.3952 28.37 34.6764 28.0285 35.0077C27.3448 35.6715 26.8718 36.4989 26.6442 37.4039C25.2032 36.0755 24.2988 34.1732 24.2988 32.0634C24.2988 31.4855 24.3669 30.9102 24.5009 30.354C24.5768 30.0394 24.3833 29.7229 24.0687 29.647C23.7543 29.5712 23.4376 29.7647 23.3617 30.0793C23.2059 30.7255 23.127 31.3929 23.127 32.0634C23.127 36.7359 26.9798 40.5 31.5635 40.5C36.1485 40.5 40 36.743 40 32.0635C40 27.6086 36.529 23.9497 32.1495 23.6477ZM8.43609 39.3281C7.0475 39.3281 5.70602 38.928 4.55953 38.2048C4.66039 37.3102 5.06414 36.4829 5.71734 35.8487C6.09289 35.4844 6.54023 35.1982 7.02242 35.0107C7.44352 35.2384 7.92508 35.368 8.43648 35.368C8.94797 35.368 9.42977 35.2384 9.85086 35.0105C11.2002 35.5341 12.1497 36.7684 12.3134 38.2044C11.1907 38.9156 9.8607 39.3281 8.43609 39.3281ZM8.25422 31.1372C8.83531 30.9459 9.45977 31.032 9.96727 31.3736L10.2466 31.5616V32.3859C10.2466 33.384 9.43461 34.196 8.43648 34.196C7.43836 34.196 6.62633 33.384 6.62633 32.3859V31.6734L8.25422 31.1372ZM6.62625 30.4398V29.4624C6.62625 29.0109 6.99352 28.6437 7.445 28.6437H9.42789C9.87938 28.6437 10.2466 29.0109 10.2466 29.4624V30.1857C9.515 29.8261 8.67641 29.7641 7.8875 30.0242L6.62625 30.4398ZM15.7011 32.0639C15.7011 34.1736 14.7967 36.0759 13.3555 37.4041C13.0058 36.0218 12.0857 34.8427 10.8244 34.1702C11.1973 33.6723 11.4185 33.0545 11.4185 32.3859V29.4623C11.4185 28.3647 10.5255 27.4717 9.42789 27.4717H7.445C6.34734 27.4717 5.45438 28.3648 5.45438 29.4623V32.3859C5.45438 33.0549 5.67594 33.6733 6.04945 34.1713C5.63172 34.3947 5.24312 34.6759 4.90117 35.0077C4.21625 35.6727 3.74289 36.5012 3.51578 37.4068C3.14234 37.0636 2.80242 36.6793 2.50367 36.2577C1.63242 35.028 1.17188 33.5778 1.17188 32.0639C1.17188 31.565 1.22289 31.0658 1.32344 30.5801C2.01813 27.2303 5.00938 24.799 8.43609 24.799C12.442 24.7989 15.7011 28.058 15.7011 32.0639ZM29.7534 29.4624C29.7534 29.0109 30.1206 28.6437 30.5721 28.6437H32.5549C33.0064 28.6437 33.3737 29.0109 33.3737 29.4624V30.1857C32.642 29.8261 31.8035 29.7642 31.0145 30.0243L29.7533 30.4398L29.7534 29.4624ZM29.7534 31.6735L31.3812 31.1372C31.9624 30.9459 32.5867 31.032 33.0944 31.3735L33.3737 31.5615V32.3859C33.3737 33.384 32.5617 34.196 31.5636 34.196C30.5655 34.196 29.7534 33.384 29.7534 32.3859V31.6735H29.7534ZM31.5635 39.3281C30.1392 39.3281 28.8096 38.9158 27.687 38.2048C27.7884 37.3095 28.1922 36.4823 28.8447 35.8487C29.2194 35.4852 29.6666 35.1991 30.1496 35.0108C30.5706 35.2384 31.0522 35.368 31.5635 35.368C32.0749 35.368 32.5566 35.2384 32.9777 35.0106C34.3272 35.5343 35.2769 36.7685 35.4406 38.2043C34.318 38.9156 32.9881 39.3281 31.5635 39.3281ZM23.2851 10.7843L23.9093 7.32555L24.9356 10.8041C24.9377 10.8111 24.9398 10.818 24.9421 10.8248C25.0395 11.115 25.3099 11.3093 25.6157 11.3093H25.6193C25.9266 11.3077 26.1968 11.1104 26.2916 10.8181C26.2938 10.8114 26.2959 10.8046 26.2979 10.7978L27.2888 7.32172L27.9517 10.7902C28.0124 11.1081 28.3195 11.3168 28.6372 11.2558C28.9551 11.1951 29.1634 10.8881 29.1027 10.5703L28.0737 5.18617C28.0092 4.87023 27.7394 4.6368 27.4174 4.61867C27.096 4.60109 26.801 4.80211 26.7015 5.10875C26.6993 5.11547 26.6973 5.12219 26.6953 5.12898L25.6082 8.94258L24.4812 5.12289C24.4792 5.11594 24.477 5.10898 24.4748 5.10211C24.3721 4.79625 24.0747 4.59727 23.7536 4.6193C23.4316 4.64086 23.1643 4.87719 23.102 5.20062L22.1318 10.576C22.0743 10.8945 22.2859 11.1992 22.6044 11.2567C22.9224 11.3141 23.2276 11.1027 23.2851 10.7843Z" fill="#828D9C"/>
</g>
<defs>
<clipPath id="clip0_72_2">
<rect width="40" height="40" fill="white" transform="translate(0 0.5)"/>
</clipPath>
</defs>
</svg>
