<svg width="20" height="20" viewBox="0 0 20 20" fill="none" xmlns="http://www.w3.org/2000/svg">
<g clip-path="url(#clip0_6_933)">
<path d="M5.19126 14.8086C6.90676 16.5241 8.84848 17.9641 11.1274 19.211C12.088 19.7366 13.0898 20.0014 14.0909 20.0014C14.7257 20.0003 15.3559 19.8952 15.9566 19.6901C17.3912 19.205 18.7018 18.1499 19.6471 16.7191C20.2984 15.733 19.8847 15.122 19.6765 14.9051L16.9869 12.1016C16.4725 11.5654 15.6525 11.4614 14.9931 11.8486C14.1274 12.3566 13.2113 12.7731 12.2595 13.0915C12.2308 13.1011 12.2027 13.1123 12.1752 13.1249C12.0766 13.1363 11.7038 13.0702 11.0173 12.6384C10.396 12.2478 9.68329 11.6618 9.01059 10.9891C8.3379 10.3164 7.75212 9.60375 7.36133 8.98242C6.92954 8.2961 6.86383 7.92359 6.87485 7.82465C6.88751 7.7972 6.89865 7.76909 6.90825 7.74043C7.22665 6.78862 7.64319 5.8725 8.15114 5.00688C8.53833 4.34731 8.4343 3.52738 7.89813 3.01293L5.09473 0.323283C4.87778 0.115236 4.26684 -0.298592 3.28075 0.352814C1.84997 1.29801 0.794851 2.60863 0.309773 4.04324C-0.230618 5.64176 -0.0650711 7.31168 0.788913 8.87246C2.03579 11.1514 3.47583 13.0931 5.19126 14.8086ZM15.8265 13.2621L18.2772 15.8164C18.1378 16.0272 17.9865 16.2299 17.8241 16.4235C17.0156 15.4293 16.1462 14.4863 15.2207 13.6C15.4241 13.4922 15.625 13.3801 15.8236 13.2638C15.8246 13.263 15.8256 13.2625 15.8265 13.262L15.8265 13.2621ZM6.73782 4.1734C6.73731 4.17434 6.7368 4.17531 6.73618 4.17633C6.61899 4.37604 6.50615 4.57843 6.39766 4.78348C5.51481 3.85443 4.57413 2.98209 3.58126 2.17168C3.7734 2.01083 3.97444 1.86093 4.18344 1.7227L6.73782 4.1734ZM2.4686 3.38133C3.60559 4.30286 4.67056 5.30986 5.65423 6.39356C5.55165 6.65236 5.45584 6.91357 5.3668 7.17719C4.68255 8.7366 6.86864 11.1675 7.85055 12.1494C8.83247 13.1313 11.2633 15.3174 12.8228 14.6332C13.0888 14.5434 13.3526 14.4466 13.614 14.3427C14.692 15.3304 15.6945 16.3976 16.6129 17.5352C15.3493 18.4057 13.7069 18.7523 11.9149 17.7718C7.70188 15.4666 4.53333 12.298 2.22817 8.08496C1.24618 6.2902 1.5952 4.64563 2.4686 3.38133ZM17.7588 2.2411C18.4721 2.95126 19.0374 3.79584 19.4221 4.72595C19.8067 5.65606 20.0031 6.65322 19.9999 7.65973C19.9999 7.87729 19.9134 8.08594 19.7596 8.23978C19.6057 8.39361 19.3971 8.48004 19.1795 8.48004C18.962 8.48004 18.7533 8.39361 18.5995 8.23978C18.4457 8.08594 18.3592 7.87729 18.3592 7.65973C18.3603 6.86898 18.2054 6.0858 17.9033 5.35503C17.6012 4.62427 17.1578 3.9603 16.5987 3.40116C16.0396 2.84202 15.3756 2.39871 14.6448 2.09661C13.9141 1.79451 13.1309 1.63957 12.3401 1.64067C12.1226 1.64067 11.9139 1.55424 11.7601 1.4004C11.6062 1.24656 11.5198 1.03791 11.5198 0.820353C11.5198 0.602793 11.6062 0.394143 11.7601 0.240305C11.9139 0.0864662 12.1226 4.06163e-05 12.3401 4.06163e-05C13.3466 -0.00324743 14.3438 0.193131 15.2739 0.577808C16.204 0.962485 17.0486 1.52782 17.7588 2.2411H17.7588ZM14.0233 5.9766C13.6855 5.63765 13.2839 5.36907 12.8416 5.18639C12.3994 5.00371 11.9253 4.91056 11.4468 4.91234C11.2292 4.91234 11.0206 4.82592 10.8667 4.67208C10.7129 4.51824 10.6265 4.30959 10.6265 4.09203C10.6265 3.87447 10.7129 3.66582 10.8667 3.51198C11.0206 3.35815 11.2292 3.27172 11.4468 3.27172C12.1406 3.27079 12.8277 3.40676 13.4689 3.67184C14.1101 3.93691 14.6927 4.32589 15.1832 4.81649C15.6738 5.30708 16.0628 5.88965 16.3279 6.53082C16.593 7.17199 16.7289 7.85917 16.728 8.55297C16.728 8.77053 16.6416 8.97918 16.4878 9.13302C16.3339 9.28686 16.1253 9.37328 15.9077 9.37328C15.6901 9.37328 15.4815 9.28686 15.3277 9.13302C15.1738 8.97918 15.0874 8.77053 15.0874 8.55297C15.0892 8.0745 14.996 7.60044 14.8134 7.15821C14.6307 6.71597 14.3622 6.31436 14.0233 5.9766ZM12.8843 7.15301C12.9953 7.27136 13.0687 7.41998 13.0953 7.58006C13.1219 7.74014 13.1004 7.9045 13.0335 8.05237C12.9667 8.20023 12.8575 8.32495 12.7198 8.41077C12.582 8.49659 12.422 8.53964 12.2598 8.53449C12.0976 8.52934 11.9406 8.47622 11.8086 8.38184C11.6766 8.28746 11.5755 8.15606 11.5182 8.00425C11.4609 7.85245 11.4498 7.68705 11.4865 7.52898C11.5231 7.3709 11.6059 7.22725 11.7241 7.11617L11.7247 7.11559C11.8033 7.04188 11.8957 6.98438 11.9965 6.94637C12.0973 6.90836 12.2046 6.89058 12.3123 6.89404C12.42 6.89751 12.5259 6.92216 12.6241 6.96658C12.7222 7.011 12.8107 7.07432 12.8844 7.15293L12.8843 7.15301Z" fill="black"/>
</g>
<defs>
<clipPath id="clip0_6_933">
<rect width="20" height="20" fill="white"/>
</clipPath>
</defs>
</svg>
